PathFileType	4	(X/Y/Z)	../motion_lab\static\static_01\task.trc
DataRate	CameraRate	NumFrames	NumMarkers	Units	OrigDataRate	OrigDataStartFrame	OrigNumFrames
200.000000	200.000000	4	73	mm	200.000000	346	693
Frame#	Time	Athlete_3:GLAB			Athlete_3:RFHD			Athlete_3:LFHD			Athlete_3:C7			Athlete_3:T6			Athlete_3:SPINMOL			Athlete_3:SPINM2			Athlete_3:SPINM3			Athlete_3:T12			Athlete_3:BELTOL			Athlete_3:BELT2			Athlete_3:BELT3			Athlete_3:SACROL			Athlete_3:SACR2			Athlete_3:SACR3			Athlete_3:LASI			Athlete_3:RASI			Athlete_3:LPSI			Athlete_3:RPSI			Athlete_3:LTHOL			Athlete_3:LTH2			Athlete_3:LTH3			Athlete_3:LKNEL			Athlete_3:LKNEM			Athlete_3:LFIB			Athlete_3:LSHAOL			Athlete_3:LSHA2			Athlete_3:LSHA3			Athlete_3:LMALL			Athlete_3:LMALM			Athlete_3:LHEE			Athlete_3:LTOE			Athlete_3:LM5			Athlete_3:RTHOL			Athlete_3:RTH2			Athlete_3:RTH3			Athlete_3:RKNEL			Athlete_3:RKNEM			Athlete_3:RFIB			Athlete_3:RSHAOL			Athlete_3:RSHA2			Athlete_3:RSHA3			Athlete_3:RMALL			Athlete_3:RMALM			Athlete_3:RHEE			Athlete_3:RTOE			Athlete_3:RM5			Athlete_3:STRN			Athlete_3:XIPH			Athlete_3:LACR			Athlete_3:LUAOL			Athlete_3:LUA2			Athlete_3:LUA3			Athlete_3:LCUBL			Athlete_3:LCUBM			Athlete_3:LLAOL			Athlete_3:LLA2			Athlete_3:LLA3			Athlete_3:LWRR			Athlete_3:LWRU			Athlete_3:RACR			Athlete_3:RUAOL			Athlete_3:RUA2			Athlete_3:RUA3			Athlete_3:RCUBL			Athlete_3:RCUBM			Athlete_3:RLAOL			Athlete_3:RLA2			Athlete_3:RLA3			Athlete_3:RWRR			Athlete_3:RWRU			Bar:BL			Bar:BR			
		X1	Y1	Z1	X2	Y2	Z2	X3	Y3	Z3	X4	Y4	Z4	X5	Y5	Z5	X6	Y6	Z6	X7	Y7	Z7	X8	Y8	Z8	X9	Y9	Z9	X10	Y10	Z10	X11	Y11	Z11	X12	Y12	Z12	X13	Y13	Z13	X14	Y14	Z14	X15	Y15	Z15	X16	Y16	Z16	X17	Y17	Z17	X18	Y18	Z18	X19	Y19	Z19	X20	Y20	Z20	X21	Y21	Z21	X22	Y22	Z22	X23	Y23	Z23	X24	Y24	Z24	X25	Y25	Z25	X26	Y26	Z26	X27	Y27	Z27	X28	Y28	Z28	X29	Y29	Z29	X30	Y30	Z30	X31	Y31	Z31	X32	Y32	Z32	X33	Y33	Z33	X34	Y34	Z34	X35	Y35	Z35	X36	Y36	Z36	X37	Y37	Z37	X38	Y38	Z38	X39	Y39	Z39	X40	Y40	Z40	X41	Y41	Z41	X42	Y42	Z42	X43	Y43	Z43	X44	Y44	Z44	X45	Y45	Z45	X46	Y46	Z46	X47	Y47	Z47	X48	Y48	Z48	X49	Y49	Z49	X50	Y50	Z50	X51	Y51	Z51	X52	Y52	Z52	X53	Y53	Z53	X54	Y54	Z54	X55	Y55	Z55	X56	Y56	Z56	X57	Y57	Z57	X58	Y58	Z58	X59	Y59	Z59	X60	Y60	Z60	X61	Y61	Z61	X62	Y62	Z62	X63	Y63	Z63	X64	Y64	Z64	X65	Y65	Z65	X66	Y66	Z66	X67	Y67	Z67	X68	Y68	Z68	X69	Y69	Z69	X70	Y70	Z70	X71	Y71	Z71	X72	Y72	Z72	X73	Y73	Z73	

347	1.73	1216.398193359375	1572.033569335938	358.3354797363282	1139.604370117188	1587.426269531251	300.005584716797	1291.728393554688	1587.937133789063	294.9759521484376	1212.179077148438	1449.106689453125	133.0523071289063	1226.758056640625	1244.287353515625	78.19108581542972	1230.966552734375	1211.9921875	73.85335540771487	1179.0888671875	1151.12109375	68.83021545410159	1227.954223632813	1150.207397460938	78.17253875732425	1226.7568359375	1109.271484375	91.40533447265628	1226.009399414063	1086.802001953125	68.04274749755862	1172.872924804688	1027.218383789063	69.42118072509768	1222.46728515625	1025.027221679688	61.77068710327151	1247.901245117188	975.567749023438	72.77347564697268	1198.053833007813	985.0769042968755	79.90735626220706	1209.308227539063	927.1842651367192	49.11103057861331	1336.683715820313	942.5192871093755	288.5397949218751	1109.12353515625	942.0527343750005	292.8942871093751	1259.660888671875	991.5231323242192	84.28640747070315	1170.566650390625	990.2687988281255	85.17243957519534	1443.917114257813	737.5311279296877	202.4120941162111	1426.932250976563	676.961853027344	153.1873474121094	1441.300415039063	675.6909790039065	201.6142120361329	1427.254272460938	497.9206237792971	192.9780426025392	1283.200561523438	466.1578369140627	216.549774169922	1428.351440429688	442.3215942382815	152.7692108154297	1449.813720703125	326.205047607422	145.1260223388672	1444.460815429688	260.251922607422	101.8869094848633	1450.031860351563	264.3517456054689	151.2146759033204	1434.099487304688	85.33345031738284	126.1449966430665	1350.4580078125	96.30524444580084	169.3894805908204	1374.80419921875	38.91156387329103	78.43589019775393	1391.223876953125	47.30651473999025	289.6259765625001	1492.144653320313	32.09968948364259	238.5587158203126	1006.3515625	708.258972167969	175.5125122070313	992.6071166992192	636.0132446289065	206.8498687744142	1009.544067382813	647.6221923828127	161.0695190429688	1013.820007324219	496.8752136230471	160.9991455078126	1151.699462890625	461.508972167969	209.0993957519532	1015.300170898438	442.4753112792971	116.9553680419922	998.284057617188	323.1903381347657	91.4693298339844	983.153930664063	256.0108337402345	131.1708221435547	1002.296752929688	262.1695556640626	85.11519622802737	1016.784729003907	86.75887298583987	90.05720520019534	1084.273315429688	97.00465393066412	153.0366973876954	1077.677001953125	38.23899459838869	58.04570007324222	1022.249694824219	43.2053565979004	261.586883544922	937.2039184570317	40.96638107299806	202.3486480712892	1225.022583007813	1365.602661132813	281.8881835937501	1227.036499023438	1208.035766601563	318.7017211914064	1400.482543945313	1412.716430664063	142.6314697265626	1513.80078125	1346.771850585938	130.1670532226563	1556.001464843751	1296.138427734375	120.7618560791016	1573.202636718751	1331.455688476563	154.9533081054688	1681.375000000001	1293.491577148438	166.4736022949219	1630.896728515626	1207.633178710938	188.9236602783204	1766.861572265626	1261.041381835938	195.2715759277345	1821.231445312501	1224.348876953125	200.5959625244142	1815.026000976563	1255.449096679688	239.3991241455079	1859.938354492188	1183.324340820313	308.520477294922	1902.611816406251	1205.426635742188	251.269012451172	1041.703735351563	1402.226196289063	160.5954895019532	909.3341674804692	1335.336181640625	171.018783569336	866.4565429687505	1326.4892578125	221.1408233642579	845.839477539063	1315.5048828125	176.0059814453126	795.3034667968755	1288.93798828125	168.4860992431641	809.0390014648442	1195.0732421875	223.7959747314454	672.820739746094	1271.0859375	226.2818756103517	633.0015869140627	1259.422973632813	277.0687866210939	612.9094848632815	1246.6259765625	232.2983551025392	580.3804321289065	1179.081420898438	314.6201782226564	543.7708740234377	1211.574462890625	248.677703857422	2307.412841796876	1285.451904296875	1512.08837890625	83.95040130615237	1283.4111328125	1540.663085937501	
348	1.735	1216.40234375	1572.023071289063	358.3050231933595	1139.599609375	1587.407592773438	299.9638977050782	1291.720336914063	1587.929809570313	294.9412536621095	1212.177368164063	1449.094116210938	133.0208892822266	1226.763671875	1244.275268554688	78.17527770996097	1230.964111328125	1211.9765625	73.83448028564456	1179.097534179688	1151.102294921875	68.8176193237305	1227.961059570313	1150.19482421875	78.17546081542972	1226.767822265625	1109.259765625	91.39541625976565	1226.020141601563	1086.78759765625	68.03656005859378	1172.883422851563	1027.199584960938	69.41384124755862	1222.482299804688	1025.0087890625	61.76218032836917	1247.912475585938	975.5460815429692	72.81719970703128	1198.15283203125	985.1137695312505	79.81541442871097	1209.307983398438	927.162231445313	49.11432647705081	1336.687744140625	942.5294799804692	288.5480346679689	1109.130249023438	942.062866210938	292.8966369628907	1259.673706054688	991.5200195312505	84.28347015380862	1170.579223632813	990.2543945312505	85.16341400146487	1443.919555664063	737.5257568359377	202.4100189208986	1426.938232421875	676.970886230469	153.1906127929688	1441.357177734375	675.7226562500002	201.6209869384767	1427.259887695313	497.9162597656252	192.982879638672	1283.224975585938	466.1397399902346	216.5289001464845	1428.353515625	442.313415527344	152.7679595947266	1449.81591796875	326.2051086425782	145.1217193603516	1444.464965820313	260.2453918457032	101.8947067260743	1450.035278320313	264.3459472656251	151.2159576416016	1434.096313476563	85.33358001708987	126.1356887817383	1350.446533203125	96.29726409912115	169.3845825195313	1374.798706054688	38.90830993652345	78.4368591308594	1391.2265625	47.30880355834962	289.6325683593751	1492.143798828125	32.10033798217775	238.5584259033204	1006.371398925782	708.2493286132815	175.5071868896485	992.6250000000005	636.0151977539065	206.8556518554689	1009.560424804688	647.6158447265627	161.0544891357422	1013.834716796875	496.8728637695315	160.9927673339844	1151.705322265625	461.5054321289065	209.1087188720704	1015.310363769532	442.4717712402346	116.944206237793	998.381469726563	323.2556457519532	91.54348754882815	983.1574707031255	255.9981689453126	131.1558990478516	1002.313537597657	262.1729431152345	85.11592864990237	1016.784362792969	86.75854492187503	90.06085205078128	1084.276977539063	97.00212860107428	153.0408477783204	1077.673217773438	38.24230575561525	58.04343414306643	1022.249877929688	43.20550537109376	261.5889282226564	937.2043457031255	40.96611404418947	202.3489227294923	1225.023803710938	1365.61376953125	281.8483276367189	1227.042724609375	1208.04296875	318.6856994628907	1400.46630859375	1412.661865234375	142.6719055175782	1513.81689453125	1346.779541015625	130.1620635986329	1555.989135742188	1296.124389648438	120.7763748168946	1573.196533203126	1331.42822265625	154.9700469970704	1681.356811523438	1293.446533203125	166.4611358642579	1630.859985351563	1207.593505859375	188.9335327148438	1766.808959960938	1260.989501953125	195.2900848388673	1821.208618164063	1224.295288085938	200.6302337646486	1814.987060546876	1255.394897460938	239.4220581054689	1859.880981445313	1183.261474609375	308.5572509765626	1902.569335937501	1205.35693359375	251.3171386718751	1041.71484375	1402.222290039063	160.5679626464844	909.3173828125005	1335.333984375	171.0010070800782	866.4648437500005	1326.473510742188	221.1172180175782	845.841674804688	1315.49267578125	176.0033569335938	795.309448242188	1288.926147460938	168.4821929931641	809.0507202148442	1195.0576171875	223.7879180908204	672.8966064453127	1270.956909179688	226.2610321044923	633.2578735351565	1259.41943359375	276.9707641601564	612.8726806640627	1246.7041015625	232.3250732421876	580.4122314453127	1179.04150390625	314.6268005371095	543.7861328125002	1211.549438476563	248.6959533691407	2307.399414062501	1285.4501953125	1512.078491210938	83.95191192626956	1283.408569335938	1540.664306640626	
349	1.74	1216.411254882813	1572.012695312501	358.2468566894532	1139.600341796875	1587.389526367188	299.915496826172	1291.718627929688	1587.927368164063	294.9064941406251	1212.17626953125	1449.084228515625	132.9779815673829	1226.775390625	1244.253051757813	78.14992523193362	1230.97607421875	1211.970581054688	73.81037902832034	1179.099365234375	1151.089721679688	68.80606842041018	1227.961059570313	1150.177612304688	78.1599044799805	1226.776245117188	1109.254760742188	91.38059997558597	1226.027954101563	1086.764770507813	68.02641296386722	1172.890258789063	1027.184204101563	69.40345764160159	1222.494750976563	1024.9931640625	61.75091552734378	1247.870727539063	975.4660644531255	72.75921630859378	1198.177978515625	985.1035766601567	79.82397460937503	1209.32568359375	927.1501464843755	49.11540603637698	1336.697265625	942.537963867188	288.5621337890626	1109.129638671875	942.0783691406255	292.9044189453126	1259.68701171875	991.5079956054692	84.27746582031253	1170.586547851563	990.2446899414067	85.15972137451175	1443.934448242188	737.5239868164065	202.4118499755861	1426.956787109375	676.9526367187502	153.1941680908204	1441.358154296875	675.703308105469	201.6205291748048	1427.26708984375	497.9093322753909	192.984588623047	1283.189453125	466.1352233886721	216.5444335937501	1428.362915039063	442.3169555664065	152.7771759033204	1449.827026367188	326.2080078125001	145.130599975586	1444.459228515625	260.2404785156251	101.8954315185547	1450.042846679688	264.3454895019532	151.2128448486329	1434.09716796875	85.330436706543	126.142189025879	1350.450317382813	96.29541015625006	169.3840026855469	1374.805297851563	38.9054527282715	78.42773437500003	1391.229370117188	47.30355453491212	289.6274719238282	1492.149291992188	32.0994110107422	238.5677185058595	1006.389282226563	708.2510986328127	175.5034790039063	992.6395874023442	636.013122558594	206.8480987548829	1009.573547363282	647.6149902343752	161.0534667968751	1013.845153808594	496.8688964843752	160.9876251220704	1151.711669921875	461.5036315917971	209.1229705810548	1015.320434570313	442.4778747558596	116.9458389282227	998.3880004882817	323.2450256347657	91.518180847168	983.1638793945317	256.0037536621095	131.155746459961	1002.319396972657	262.1705322265626	85.1091232299805	1016.782897949219	86.76275634765628	90.0622482299805	1084.278076171875	97.00047302246099	153.0431365966797	1077.671875	38.23458099365236	58.05111312866214	1022.249938964844	43.20289230346681	261.5842895507814	937.2126464843755	40.96009826660158	202.3508605957032	1225.034057617188	1365.622436523438	281.8135681152345	1227.046630859375	1208.052490234375	318.6547851562501	1400.4658203125	1412.6591796875	142.6563873291016	1513.846801757813	1346.784423828125	130.1797027587891	1555.965332031251	1296.12109375	120.756576538086	1573.181518554688	1331.402099609375	154.9832916259766	1681.340576171876	1293.384399414063	166.451889038086	1630.822631835938	1207.561767578125	188.9244537353516	1766.790039062501	1260.9462890625	195.2972412109376	1821.185180664063	1224.224731445313	200.6682739257814	1814.951904296876	1255.333374023438	239.4476318359376	1859.824829101563	1183.207885742188	308.610076904297	1902.533447265626	1205.28955078125	251.3783416748048	1041.72314453125	1402.221069335938	160.5274963378907	909.3112182617192	1335.324951171875	170.9972381591797	866.4839477539067	1326.465087890625	221.1019592285157	845.8519897460942	1315.478637695313	175.9924621582032	795.3164672851567	1288.925903320313	168.4726104736329	809.061401367188	1195.177734375	223.8926391601564	672.8416137695315	1271.005249023438	226.3143310546876	633.0516357421877	1259.3505859375	277.0998535156251	612.9418945312502	1246.576171875	232.3402404785157	580.4385375976565	1179.004272460938	314.624481201172	543.8055419921877	1211.531494140625	248.7134857177736	2307.393554687501	1285.453735351563	1512.074462890625	83.94446563720706	1283.41357421875	1540.670410156251	
350	1.745	1216.394409179688	1571.987060546876	358.1977539062501	1139.59375	1587.388549804688	299.886199951172	1291.715942382813	1587.922485351563	294.8719787597657	1212.187255859375	1449.084106445313	132.9361114501954	1226.78466796875	1244.23974609375	78.12417602539065	1230.987426757813	1211.962036132813	73.79945373535159	1179.104858398438	1151.079223632813	68.78763580322268	1227.970825195313	1150.171875	78.15732574462893	1226.778076171875	1109.242309570313	91.36836242675784	1226.039428710938	1086.751220703125	68.021842956543	1172.908935546875	1027.168090820313	69.40882873535159	1222.51220703125	1024.978515625	61.75819778442386	1247.877319335938	975.437133789063	72.73163604736331	1198.190185546875	985.0797729492192	79.81204223632815	1209.34814453125	927.1383666992192	49.11440658569339	1336.710815429688	942.5469360351567	288.5682983398439	1109.143798828125	942.0854492187505	292.8963317871095	1259.69482421875	991.4978637695317	84.28842926025393	1170.610961914063	990.2324829101567	85.16278076171878	1443.9560546875	737.525817871094	202.4154510498048	1426.941772460938	676.9536132812502	153.1909637451172	1441.409301757813	675.710876464844	201.6231842041017	1427.278198242188	497.9114074707034	192.990447998047	1283.216430664063	466.1456298828127	216.5536346435548	1428.370849609375	442.3110656738284	152.7752990722657	1449.8427734375	326.2098388671876	145.1284332275391	1444.462890625	260.2403564453126	101.8952789306641	1450.03955078125	264.3406982421876	151.2182922363282	1434.10009765625	85.32671356201175	126.138298034668	1350.453369140625	96.29520416259771	169.3764190673829	1374.796020507813	38.90719985961915	78.44041442871097	1391.235961914063	47.30362701416017	289.621795654297	1492.15087890625	32.10134124755861	238.5608367919923	1006.4033203125	708.2493286132815	175.4954986572266	992.6444702148442	636.012634277344	206.8317260742189	1009.579833984375	647.611755371094	161.0406799316407	1013.851440429688	496.874938964844	160.9816894531251	1151.712036132813	461.4950866699221	209.1303100585939	1015.335815429688	442.474792480469	116.9446563720704	998.1349487304692	323.2669677734376	91.4135437011719	983.1737670898442	255.996063232422	131.1488952636719	1002.331176757813	262.1586914062501	85.11277770996097	1016.783630371094	86.76210021972659	90.06660461425784	1084.276123046875	96.99697113037115	153.0412750244141	1077.672485351563	38.24624633789064	58.04795074462893	1022.253234863282	43.19994735717775	261.5793762207032	937.2117309570317	40.96355056762697	202.3509521484376	1225.041137695313	1365.626831054688	281.7820129394532	1227.04052734375	1208.059448242188	318.6321716308595	1400.468994140625	1412.654296875	142.6483612060547	1513.822265625	1346.7861328125	130.1563720703126	1555.951171875001	1296.12353515625	120.7661437988282	1573.167480468751	1331.3759765625	154.9688720703126	1681.332519531251	1293.3427734375	166.4410552978516	1630.807373046876	1207.516235351563	188.9084014892579	1766.781372070313	1260.904907226563	195.2823486328126	1821.153930664063	1224.156982421875	200.7124176025392	1814.929809570313	1255.27783203125	239.4846038818361	1859.772338867188	1183.164428710938	308.666717529297	1902.489013671876	1205.223876953125	251.4390106201173	1041.72900390625	1402.217407226563	160.4831085205079	909.2526245117192	1335.295043945313	170.8939666748047	866.4938354492192	1326.476928710938	221.0990295410157	845.860961914063	1315.468017578125	175.9844360351563	795.3173217773442	1288.921508789063	168.4644622802735	809.078735351563	1195.169555664063	223.8989105224611	672.9165649414065	1270.95166015625	226.2667541503907	633.2687988281252	1259.390380859375	277.0035400390626	612.9619140625002	1246.651123046875	232.2237854003907	580.4710083007815	1178.968383789063	314.625946044922	543.8137817382815	1211.503051757813	248.7269439697267	2307.419433593751	1285.454223632813	1512.099609375	83.9473571777344	1283.414794921875	1540.673950195313	
